<svg version="1.1" xmlns="http://www.w3.org/2000/svg" xmlns:xlink="http://www.w3.org/1999/xlink" width="64px" height="64px" viewBox="0,0,256,256"><g fill="none" fill-rule="nonzero" stroke="none" stroke-width="1" stroke-linecap="butt" stroke-linejoin="miter" stroke-miterlimit="10" stroke-dasharray="" stroke-dashoffset="0" font-family="none" font-weight="none" font-size="none" text-anchor="none" style="mix-blend-mode: normal"><g transform="scale(4,4)"><path d="M54.2,3h-44c-1.7,0 -3,1.3 -3,3v11v41c0,1.7 1.3,3 3,3h44c1.7,0 3,-1.3 3,-3v-41v-11c0,-1.7 -1.3,-3 -3,-3z" fill="#e3e2e2"></path><circle cx="32.2" cy="39" r="14" fill="#ffffff"></circle><rect x="11.2" y="7" width="10" height="4" fill="#606060"></rect><circle cx="38.2" cy="10" r="3" fill="#606060"></circle><path d="M32.2,57c9.9,0 18,-8.1 18,-18c0,-9.9 -8.1,-18 -18,-18c-9.9,0 -18,8.1 -18,18c0,9.9 8.1,18 18,18zM32.2,25c7.7,0 14,6.3 14,14c0,7.7 -6.3,14 -14,14c-5.4,0 -10.1,-3 -12.4,-7.5v0v0c-1,-1.9 -1.6,-4.1 -1.6,-6.5c0,-7.7 6.3,-14 14,-14z" fill="#606060"></path><path d="M45.8,42.1v0c-0.7,-0.9 -1.6,-1.7 -3,-1.7c-3.7,0 -3.7,5.2 -7.4,5.2c-3.7,0 -3.7,-5.2 -7.4,-5.2c-3.7,0 -3.7,5.2 -7.4,5.2c-0.3,0 -0.5,0 -0.8,-0.1c2.3,4.5 7,7.5 12.4,7.5c6.7,0 12.2,-4.7 13.6,-10.9z" fill="#a0cbef"></path><path d="M54.2,58h-44c-1.7,0 -3,-1.3 -3,-3v3c0,1.7 1.3,3 3,3h44c1.7,0 3,-1.3 3,-3v-3c0,1.7 -1.3,3 -3,3z" fill="#b8b8b8"></path><rect x="44" y="11" width="2" height="2" fill="#000000"></rect><rect x="48" y="11" width="2" height="2" fill="#000000"></rect><rect x="52" y="11" width="2" height="2" fill="#000000"></rect><path d="M11,12h10c0.6,0 1,-0.4 1,-1v-4c0,-0.6 -0.4,-1 -1,-1h-10c-0.6,0 -1,0.4 -1,1v4c0,0.6 0.4,1 1,1zM12,8h8v2h-8z" fill="#000000"></path><path d="M32,24c-8.3,0 -15,6.7 -15,15c0,8.3 6.7,15 15,15c8.3,0 15,-6.7 15,-15c0,-8.3 -6.7,-15 -15,-15zM32,52c-4.4,0 -8.3,-2.2 -10.6,-5.5c1.7,-0.4 2.7,-1.8 3.5,-2.9c1,-1.3 1.6,-2.2 2.9,-2.2c1.3,0 1.9,0.8 2.9,2.2c1,1.3 2.1,3 4.5,3c2.4,0 3.6,-1.7 4.5,-3c1,-1.3 1.6,-2.2 2.9,-2.2c0.7,0 1.3,0.3 1.9,1c-1.5,5.5 -6.5,9.6 -12.5,9.6zM44.9,40.1c-0.6,-0.4 -1.4,-0.7 -2.3,-0.7c-2.4,0 -3.6,1.7 -4.5,3c-1,1.3 -1.6,2.2 -2.9,2.2c-1.3,0 -1.9,-0.8 -2.9,-2.2c-1,-1.3 -2.1,-3 -4.5,-3c-2.4,0 -3.6,1.7 -4.5,3c-1,1.3 -1.6,2.2 -2.9,2.2h-0.1c-0.8,-1.7 -1.3,-3.6 -1.3,-5.6c0,-7.2 5.8,-13 13,-13c7.2,0 13,5.8 13,13c0,0.4 0,0.7 -0.1,1.1z" fill="#000000"></path><path d="M10,62h44c2.2,0 4,-1.8 4,-4v-52c0,-2.2 -1.8,-4 -4,-4h-44c-2.2,0 -4,1.8 -4,4v52c0,2.2 1.8,4 4,4zM54,60h-44c-1.1,0 -2,-0.9 -2,-2v-40h48v40c0,1.1 -0.9,2 -2,2zM10,4h44c1.1,0 2,0.9 2,2v10h-48v-10c0,-1.1 0.9,-2 2,-2z" fill="#000000"></path><rect x="44" y="7" width="2" height="2" fill="#000000"></rect><rect x="48" y="7" width="2" height="2" fill="#000000"></rect><rect x="52" y="7" width="2" height="2" fill="#000000"></rect><path d="M38,14c2.2,0 4,-1.8 4,-4c0,-2.2 -1.8,-4 -4,-4c-2.2,0 -4,1.8 -4,4c0,2.2 1.8,4 4,4zM38,8c1.1,0 2,0.9 2,2c0,1.1 -0.9,2 -2,2c-1.1,0 -2,-0.9 -2,-2c0,-1.1 0.9,-2 2,-2z" fill="#000000"></path><path d="M32,27v2c3.8,0 7.2,2.1 8.9,5.5l1.8,-0.9c-2.1,-4.1 -6.2,-6.6 -10.7,-6.6z" fill="#000000"></path><path d="M32,20c-10.5,0 -19,8.5 -19,19c0,10.5 8.5,19 19,19c10.5,0 19,-8.5 19,-19c0,-10.5 -8.5,-19 -19,-19zM32,56c-9.4,0 -17,-7.6 -17,-17c0,-9.4 7.6,-17 17,-17c9.4,0 17,7.6 17,17c0,9.4 -7.6,17 -17,17z" fill="#000000"></path></g></g></svg>